<?xml version="1.0" encoding="UTF-8" standalone="no"?>
<!DOCTYPE svg PUBLIC "-//W3C//DTD SVG 1.1//EN"
 "http://www.w3.org/Graphics/SVG/1.1/DTD/svg11.dtd">
<!-- Generated by graphviz version 2.40.1 (20161225.0304)
 -->
<!-- Title: CFG_17DeadCodeEliminate Pages: 1 -->
<svg width="571pt" height="520pt"
 viewBox="0.00 0.00 571.00 520.00" xmlns="http://www.w3.org/2000/svg" xmlns:xlink="http://www.w3.org/1999/xlink">
<g id="graph0" class="graph" transform="scale(1 1) rotate(0) translate(4 516)">
<title>CFG_17DeadCodeEliminate</title>
<polygon fill="#ffffff" stroke="transparent" points="-4,4 -4,-516 567,-516 567,4 -4,4"/>
<text text-anchor="middle" x="281.5" y="-7.8" font-family="Times,serif" font-size="14.00" fill="#000000"> 17DeadCodeEliminate </text>
<!-- main_label_entry -->
<g id="node1" class="node">
<title>main_label_entry</title>
<polygon fill="none" stroke="#000000" points="56,-293.5 56,-511.5 310,-511.5 310,-293.5 56,-293.5"/>
<text text-anchor="start" x="64" y="-496.3" font-family="Times,serif" font-size="14.00" fill="#000000">@main</text>
<text text-anchor="start" x="64" y="-481.3" font-family="Times,serif" font-size="14.00" fill="#000000">label_entry ;preds: </text>
<text text-anchor="start" x="64" y="-466.3" font-family="Times,serif" font-size="14.00" fill="#000000"> [ 100 x i32]* %34 = Alloca Init 0 </text>
<text text-anchor="start" x="64" y="-451.3" font-family="Times,serif" font-size="14.00" fill="#000000"> [ 100 x i32]* %35 = Alloca Init 0 </text>
<text text-anchor="start" x="64" y="-436.3" font-family="Times,serif" font-size="14.00" fill="#000000"> i32 %2 = Call getarray [ 100 x i32]* %35 </text>
<text text-anchor="start" x="64" y="-421.3" font-family="Times,serif" font-size="14.00" fill="#000000"> i32 %4 = Call getarray [ 100 x i32]* %34 </text>
<text text-anchor="start" x="64" y="-406.3" font-family="Times,serif" font-size="14.00" fill="#000000"> i32 %37 = Call __mtstart </text>
<text text-anchor="start" x="64" y="-391.3" font-family="Times,serif" font-size="14.00" fill="#000000"> i32 %39 = Mul i32 10 i32 %37 </text>
<text text-anchor="start" x="64" y="-376.3" font-family="Times,serif" font-size="14.00" fill="#000000"> i32 %41 = Add i32 %37 i32 1 </text>
<text text-anchor="start" x="64" y="-361.3" font-family="Times,serif" font-size="14.00" fill="#000000"> i32 %42 = Mul i32 10 i32 %41 </text>
<text text-anchor="start" x="64" y="-346.3" font-family="Times,serif" font-size="14.00" fill="#000000"> i32 %50 = AShr i32 %42 i32 2 </text>
<text text-anchor="start" x="64" y="-331.3" font-family="Times,serif" font-size="14.00" fill="#000000"> i32 %51 = AShr i32 %39 i32 2 </text>
<text text-anchor="start" x="64" y="-316.3" font-family="Times,serif" font-size="14.00" fill="#000000"> i32 %52 = Shl i32 %51 i32 0 </text>
<text text-anchor="start" x="64" y="-301.3" font-family="Times,serif" font-size="14.00" fill="#000000"> Br label_ %13 </text>
</g>
<!-- main_label_13 -->
<g id="node2" class="node">
<title>main_label_13</title>
<polygon fill="none" stroke="#000000" points="0,-188.5 0,-256.5 366,-256.5 366,-188.5 0,-188.5"/>
<text text-anchor="start" x="8" y="-241.3" font-family="Times,serif" font-size="14.00" fill="#000000">@main</text>
<text text-anchor="start" x="8" y="-226.3" font-family="Times,serif" font-size="14.00" fill="#000000">label_13 ;preds: %17 %entry </text>
<text text-anchor="start" x="8" y="-211.3" font-family="Times,serif" font-size="14.00" fill="#000000"> i32 %36 = PHI i32 %31 label_ %17 i32 %52 label_ %entry </text>
<text text-anchor="start" x="8" y="-196.3" font-family="Times,serif" font-size="14.00" fill="#000000"> Br LT i32 %36 i32 %50 label_ %17 label_ %MutithreadEnd0 </text>
</g>
<!-- main_label_entry&#45;&gt;main_label_13 -->
<g id="edge1" class="edge">
<title>main_label_entry&#45;&gt;main_label_13</title>
<path fill="none" stroke="#000000" d="M183,-293.3824C183,-284.1424 183,-275.1843 183,-266.9224"/>
<polygon fill="#000000" stroke="#000000" points="186.5001,-266.8607 183,-256.8608 179.5001,-266.8608 186.5001,-266.8607"/>
</g>
<!-- main_label_17 -->
<g id="node3" class="node">
<title>main_label_17</title>
<polygon fill="none" stroke="#000000" points="33,-23.5 33,-151.5 333,-151.5 333,-23.5 33,-23.5"/>
<text text-anchor="start" x="41" y="-136.3" font-family="Times,serif" font-size="14.00" fill="#000000">@main</text>
<text text-anchor="start" x="41" y="-121.3" font-family="Times,serif" font-size="14.00" fill="#000000">label_17 ;preds: %13 </text>
<text text-anchor="start" x="41" y="-106.3" font-family="Times,serif" font-size="14.00" fill="#000000"> i32 %24 = Load [ 100 x i32]* %35 i32 %36 i32 2 </text>
<text text-anchor="start" x="41" y="-91.3" font-family="Times,serif" font-size="14.00" fill="#000000"> i32 %28 = Load [ 100 x i32]* %34 i32 %36 i32 2 </text>
<text text-anchor="start" x="41" y="-76.3" font-family="Times,serif" font-size="14.00" fill="#000000"> i32 %29 = Add i32 %24 i32 %28 </text>
<text text-anchor="start" x="41" y="-61.3" font-family="Times,serif" font-size="14.00" fill="#000000"> Store i32 %29 [ 100 x i32]* %35 i32 %36 i32 2 </text>
<text text-anchor="start" x="41" y="-46.3" font-family="Times,serif" font-size="14.00" fill="#000000"> i32 %31 = Add i32 %36 i32 1 </text>
<text text-anchor="start" x="41" y="-31.3" font-family="Times,serif" font-size="14.00" fill="#000000"> Br label_ %13 </text>
</g>
<!-- main_label_13&#45;&gt;main_label_17 -->
<g id="edge2" class="edge">
<title>main_label_13&#45;&gt;main_label_17</title>
<path fill="none" stroke="#000000" d="M177.0476,-188.4338C176.6183,-180.1736 176.3623,-171.0197 176.2796,-161.6938"/>
<polygon fill="#000000" stroke="#000000" points="179.7794,-161.5331 176.2579,-151.5407 172.7794,-161.5481 179.7794,-161.5331"/>
</g>
<!-- main_label_MutithreadEnd0 -->
<g id="node4" class="node">
<title>main_label_MutithreadEnd0</title>
<polygon fill="none" stroke="#000000" points="351,-53.5 351,-121.5 563,-121.5 563,-53.5 351,-53.5"/>
<text text-anchor="start" x="359" y="-106.3" font-family="Times,serif" font-size="14.00" fill="#000000">@main</text>
<text text-anchor="start" x="359" y="-91.3" font-family="Times,serif" font-size="14.00" fill="#000000">label_MutithreadEnd0 ;preds: %13 </text>
<text text-anchor="start" x="359" y="-76.3" font-family="Times,serif" font-size="14.00" fill="#000000"> Call __mtend i32 %37 </text>
<text text-anchor="start" x="359" y="-61.3" font-family="Times,serif" font-size="14.00" fill="#000000"> ret i32 0 </text>
</g>
<!-- main_label_13&#45;&gt;main_label_MutithreadEnd0 -->
<g id="edge3" class="edge">
<title>main_label_13&#45;&gt;main_label_MutithreadEnd0</title>
<path fill="none" stroke="#000000" d="M263.7552,-188.4451C289.0403,-177.3162 316.89,-164.5739 342,-152 357.6559,-144.1603 374.2225,-135.2473 389.758,-126.6023"/>
<polygon fill="#000000" stroke="#000000" points="391.7574,-129.4942 398.7713,-121.5534 388.3363,-123.387 391.7574,-129.4942"/>
</g>
<!-- main_label_17&#45;&gt;main_label_13 -->
<g id="edge4" class="edge">
<title>main_label_17&#45;&gt;main_label_13</title>
<path fill="none" stroke="#000000" d="M189.7421,-151.5407C189.7834,-160.5982 189.6623,-169.7389 189.3788,-178.3084"/>
<polygon fill="#000000" stroke="#000000" points="185.8763,-178.2954 188.9524,-188.4338 192.8701,-178.59 185.8763,-178.2954"/>
</g>
</g>
</svg>
