<?xml version="1.0" encoding="UTF-8" standalone="no"?>
<!DOCTYPE svg PUBLIC "-//W3C//DTD SVG 1.1//EN"
 "http://www.w3.org/Graphics/SVG/1.1/DTD/svg11.dtd">
<!-- Generated by graphviz version 2.40.1 (20161225.0304)
 -->
<!-- Title: CFG_ Pages: 1 -->
<svg width="549pt" height="670pt"
 viewBox="0.00 0.00 548.50 670.00" xmlns="http://www.w3.org/2000/svg" xmlns:xlink="http://www.w3.org/1999/xlink">
<g id="graph0" class="graph" transform="scale(1 1) rotate(0) translate(4 666)">
<title>CFG_</title>
<polygon fill="#ffffff" stroke="transparent" points="-4,4 -4,-666 544.5,-666 544.5,4 -4,4"/>
<text text-anchor="middle" x="270.25" y="-7.8" font-family="Times,serif" font-size="14.00" fill="#000000"> </text>
<!-- doubleWhile_label_entry -->
<g id="node1" class="node">
<title>doubleWhile_label_entry</title>
<polygon fill="none" stroke="#000000" points="224.5,-601 224.5,-654 346.5,-654 346.5,-601 224.5,-601"/>
<text text-anchor="start" x="232.5" y="-638.8" font-family="Times,serif" font-size="14.00" fill="#000000">@doubleWhile</text>
<text text-anchor="start" x="232.5" y="-623.8" font-family="Times,serif" font-size="14.00" fill="#000000">label_entry ;preds: </text>
<text text-anchor="start" x="232.5" y="-608.8" font-family="Times,serif" font-size="14.00" fill="#000000"> Br label_ %3 </text>
</g>
<!-- doubleWhile_label_3 -->
<g id="node2" class="node">
<title>doubleWhile_label_3</title>
<polygon fill="none" stroke="#000000" points="117.5,-458.5 117.5,-556.5 453.5,-556.5 453.5,-458.5 117.5,-458.5"/>
<text text-anchor="start" x="125.5" y="-541.3" font-family="Times,serif" font-size="14.00" fill="#000000">@doubleWhile</text>
<text text-anchor="start" x="125.5" y="-526.3" font-family="Times,serif" font-size="14.00" fill="#000000">label_3 ;preds: %18 %entry </text>
<text text-anchor="start" x="125.5" y="-511.3" font-family="Times,serif" font-size="14.00" fill="#000000"> i32 %23 = PHI i32 %20 label_ %18 i32 7 label_ %entry </text>
<text text-anchor="start" x="125.5" y="-496.3" font-family="Times,serif" font-size="14.00" fill="#000000"> i32 %24 = PHI i32 %8 label_ %18 i32 5 label_ %entry </text>
<text text-anchor="start" x="125.5" y="-481.3" font-family="Times,serif" font-size="14.00" fill="#000000"> i1 %5 = CmpLT i32 %24 i32 100 </text>
<text text-anchor="start" x="125.5" y="-466.3" font-family="Times,serif" font-size="14.00" fill="#000000"> Br i1 %5 label_ %6 label_ %21 </text>
</g>
<!-- doubleWhile_label_entry&#45;&gt;doubleWhile_label_3 -->
<g id="edge1" class="edge">
<title>doubleWhile_label_entry&#45;&gt;doubleWhile_label_3</title>
<path fill="none" stroke="#000000" d="M285.5,-600.8681C285.5,-590.7266 285.5,-578.7201 285.5,-566.7533"/>
<polygon fill="#000000" stroke="#000000" points="289.0001,-566.7522 285.5,-556.7523 282.0001,-566.7523 289.0001,-566.7522"/>
</g>
<!-- doubleWhile_label_21 -->
<g id="node3" class="node">
<title>doubleWhile_label_21</title>
<polygon fill="none" stroke="#000000" points="41.5,-361 41.5,-414 171.5,-414 171.5,-361 41.5,-361"/>
<text text-anchor="start" x="49.5" y="-398.8" font-family="Times,serif" font-size="14.00" fill="#000000">@doubleWhile</text>
<text text-anchor="start" x="49.5" y="-383.8" font-family="Times,serif" font-size="14.00" fill="#000000">label_21 ;preds: %3 </text>
<text text-anchor="start" x="49.5" y="-368.8" font-family="Times,serif" font-size="14.00" fill="#000000"> ret i32 %23 </text>
</g>
<!-- doubleWhile_label_3&#45;&gt;doubleWhile_label_21 -->
<g id="edge2" class="edge">
<title>doubleWhile_label_3&#45;&gt;doubleWhile_label_21</title>
<path fill="none" stroke="#000000" d="M212.1774,-458.3452C192.7619,-445.3292 172.2958,-431.6089 154.5994,-419.7454"/>
<polygon fill="#000000" stroke="#000000" points="156.4064,-416.7431 146.1513,-414.0819 152.5085,-422.5575 156.4064,-416.7431"/>
</g>
<!-- doubleWhile_label_6 -->
<g id="node4" class="node">
<title>doubleWhile_label_6</title>
<polygon fill="none" stroke="#000000" points="190,-353.5 190,-421.5 381,-421.5 381,-353.5 190,-353.5"/>
<text text-anchor="start" x="198" y="-406.3" font-family="Times,serif" font-size="14.00" fill="#000000">@doubleWhile</text>
<text text-anchor="start" x="198" y="-391.3" font-family="Times,serif" font-size="14.00" fill="#000000">label_6 ;preds: %3 </text>
<text text-anchor="start" x="198" y="-376.3" font-family="Times,serif" font-size="14.00" fill="#000000"> i32 %8 = Add i32 %24 i32 30 </text>
<text text-anchor="start" x="198" y="-361.3" font-family="Times,serif" font-size="14.00" fill="#000000"> Br label_ %InvariantArea0 </text>
</g>
<!-- doubleWhile_label_3&#45;&gt;doubleWhile_label_6 -->
<g id="edge3" class="edge">
<title>doubleWhile_label_3&#45;&gt;doubleWhile_label_6</title>
<path fill="none" stroke="#000000" d="M285.5,-458.3452C285.5,-449.6021 285.5,-440.5413 285.5,-431.9389"/>
<polygon fill="#000000" stroke="#000000" points="289.0001,-431.7253 285.5,-421.7253 282.0001,-431.7254 289.0001,-431.7253"/>
</g>
<!-- doubleWhile_label_InvariantArea0 -->
<g id="node5" class="node">
<title>doubleWhile_label_InvariantArea0</title>
<polygon fill="none" stroke="#000000" points="158.5,-248.5 158.5,-316.5 356.5,-316.5 356.5,-248.5 158.5,-248.5"/>
<text text-anchor="start" x="166.5" y="-301.3" font-family="Times,serif" font-size="14.00" fill="#000000">@doubleWhile</text>
<text text-anchor="start" x="166.5" y="-286.3" font-family="Times,serif" font-size="14.00" fill="#000000">label_InvariantArea0 ;preds: %6 </text>
<text text-anchor="start" x="166.5" y="-271.3" font-family="Times,serif" font-size="14.00" fill="#000000"> i32 %16 = Mul i32 %8 i32 4 </text>
<text text-anchor="start" x="166.5" y="-256.3" font-family="Times,serif" font-size="14.00" fill="#000000"> Br label_ %10 </text>
</g>
<!-- doubleWhile_label_6&#45;&gt;doubleWhile_label_InvariantArea0 -->
<g id="edge4" class="edge">
<title>doubleWhile_label_6&#45;&gt;doubleWhile_label_InvariantArea0</title>
<path fill="none" stroke="#000000" d="M276.4092,-353.4095C274.1352,-344.882 271.6633,-335.6126 269.2796,-326.6736"/>
<polygon fill="#000000" stroke="#000000" points="272.5995,-325.5393 266.641,-316.7788 265.8359,-327.343 272.5995,-325.5393"/>
</g>
<!-- doubleWhile_label_10 -->
<g id="node6" class="node">
<title>doubleWhile_label_10</title>
<polygon fill="none" stroke="#000000" points="0,-128.5 0,-211.5 409,-211.5 409,-128.5 0,-128.5"/>
<text text-anchor="start" x="8" y="-196.3" font-family="Times,serif" font-size="14.00" fill="#000000">@doubleWhile</text>
<text text-anchor="start" x="8" y="-181.3" font-family="Times,serif" font-size="14.00" fill="#000000">label_10 ;preds: %13 %InvariantArea0 </text>
<text text-anchor="start" x="8" y="-166.3" font-family="Times,serif" font-size="14.00" fill="#000000"> i32 %25 = PHI i32 %23 label_ %InvariantArea0 i32 %17 label_ %13 </text>
<text text-anchor="start" x="8" y="-151.3" font-family="Times,serif" font-size="14.00" fill="#000000"> i1 %12 = CmpLT i32 %25 i32 100 </text>
<text text-anchor="start" x="8" y="-136.3" font-family="Times,serif" font-size="14.00" fill="#000000"> Br i1 %12 label_ %13 label_ %18 </text>
</g>
<!-- doubleWhile_label_InvariantArea0&#45;&gt;doubleWhile_label_10 -->
<g id="edge5" class="edge">
<title>doubleWhile_label_InvariantArea0&#45;&gt;doubleWhile_label_10</title>
<path fill="none" stroke="#000000" d="M241.4544,-248.441C237.387,-239.8074 232.9283,-230.3431 228.5589,-221.0684"/>
<polygon fill="#000000" stroke="#000000" points="231.6651,-219.4493 224.237,-211.8946 225.3327,-222.4326 231.6651,-219.4493"/>
</g>
<!-- doubleWhile_label_18 -->
<g id="node7" class="node">
<title>doubleWhile_label_18</title>
<polygon fill="none" stroke="#000000" points="332,-23.5 332,-91.5 535,-91.5 535,-23.5 332,-23.5"/>
<text text-anchor="start" x="340" y="-76.3" font-family="Times,serif" font-size="14.00" fill="#000000">@doubleWhile</text>
<text text-anchor="start" x="340" y="-61.3" font-family="Times,serif" font-size="14.00" fill="#000000">label_18 ;preds: %10 </text>
<text text-anchor="start" x="340" y="-46.3" font-family="Times,serif" font-size="14.00" fill="#000000"> i32 %20 = Sub i32 %25 i32 100 </text>
<text text-anchor="start" x="340" y="-31.3" font-family="Times,serif" font-size="14.00" fill="#000000"> Br label_ %3 </text>
</g>
<!-- doubleWhile_label_10&#45;&gt;doubleWhile_label_18 -->
<g id="edge6" class="edge">
<title>doubleWhile_label_10&#45;&gt;doubleWhile_label_18</title>
<path fill="none" stroke="#000000" d="M289.1205,-128.4288C310.7482,-117.8038 333.9052,-106.4276 355.2001,-95.9661"/>
<polygon fill="#000000" stroke="#000000" points="356.7705,-99.0943 364.2026,-91.5435 353.6839,-92.8115 356.7705,-99.0943"/>
</g>
<!-- doubleWhile_label_13 -->
<g id="node8" class="node">
<title>doubleWhile_label_13</title>
<polygon fill="none" stroke="#000000" points="99.5,-23.5 99.5,-91.5 309.5,-91.5 309.5,-23.5 99.5,-23.5"/>
<text text-anchor="start" x="107.5" y="-76.3" font-family="Times,serif" font-size="14.00" fill="#000000">@doubleWhile</text>
<text text-anchor="start" x="107.5" y="-61.3" font-family="Times,serif" font-size="14.00" fill="#000000">label_13 ;preds: %10 </text>
<text text-anchor="start" x="107.5" y="-46.3" font-family="Times,serif" font-size="14.00" fill="#000000"> i32 %17 = Add i32 %25 i32 %16 </text>
<text text-anchor="start" x="107.5" y="-31.3" font-family="Times,serif" font-size="14.00" fill="#000000"> Br label_ %10 </text>
</g>
<!-- doubleWhile_label_10&#45;&gt;doubleWhile_label_13 -->
<g id="edge7" class="edge">
<title>doubleWhile_label_10&#45;&gt;doubleWhile_label_13</title>
<path fill="none" stroke="#000000" d="M197.9586,-128.4288C197.7053,-119.7011 197.6827,-110.4665 197.8908,-101.6485"/>
<polygon fill="#000000" stroke="#000000" points="201.3925,-101.6588 198.2411,-91.5435 194.3967,-101.4162 201.3925,-101.6588"/>
</g>
<!-- doubleWhile_label_18&#45;&gt;doubleWhile_label_3 -->
<g id="edge9" class="edge">
<title>doubleWhile_label_18&#45;&gt;doubleWhile_label_3</title>
<path fill="none" stroke="#000000" d="M437.5363,-91.7434C443.8546,-159.5397 449.7658,-313.6581 389.5,-422 383.6413,-432.5324 375.9236,-442.2906 367.3334,-451.1592"/>
<polygon fill="#000000" stroke="#000000" points="364.6353,-448.9023 359.934,-458.397 369.5301,-453.9064 364.6353,-448.9023"/>
</g>
<!-- doubleWhile_label_13&#45;&gt;doubleWhile_label_10 -->
<g id="edge8" class="edge">
<title>doubleWhile_label_13&#45;&gt;doubleWhile_label_10</title>
<path fill="none" stroke="#000000" d="M210.7589,-91.5435C211.1518,-99.985 211.3089,-109.2213 211.2303,-118.2986"/>
<polygon fill="#000000" stroke="#000000" points="207.7286,-118.3652 211.0414,-128.4288 214.7274,-118.4958 207.7286,-118.3652"/>
</g>
<!-- main_label_entry -->
<g id="node9" class="node">
<title>main_label_entry</title>
<polygon fill="none" stroke="#000000" points="364.5,-593.5 364.5,-661.5 540.5,-661.5 540.5,-593.5 364.5,-593.5"/>
<text text-anchor="start" x="372.5" y="-646.3" font-family="Times,serif" font-size="14.00" fill="#000000">@main</text>
<text text-anchor="start" x="372.5" y="-631.3" font-family="Times,serif" font-size="14.00" fill="#000000">label_entry ;preds: </text>
<text text-anchor="start" x="372.5" y="-616.3" font-family="Times,serif" font-size="14.00" fill="#000000"> i32 %0 = Call doubleWhile </text>
<text text-anchor="start" x="372.5" y="-601.3" font-family="Times,serif" font-size="14.00" fill="#000000"> ret i32 %0 </text>
</g>
</g>
</svg>
