<?xml version="1.0" encoding="UTF-8" standalone="no"?>
<!DOCTYPE svg PUBLIC "-//W3C//DTD SVG 1.1//EN"
 "http://www.w3.org/Graphics/SVG/1.1/DTD/svg11.dtd">
<!-- Generated by graphviz version 2.40.1 (20161225.0304)
 -->
<!-- Title: %0 Pages: 1 -->
<svg width="379pt" height="292pt"
 viewBox="0.00 0.00 378.84 291.80" xmlns="http://www.w3.org/2000/svg" xmlns:xlink="http://www.w3.org/1999/xlink">
<g id="graph0" class="graph" transform="scale(1 1) rotate(0) translate(4 287.8)">
<title>%0</title>
<polygon fill="#ffffff" stroke="transparent" points="-4,4 -4,-287.8 374.84,-287.8 374.84,4 -4,4"/>
<!-- a0 -->
<g id="node1" class="node">
<title>a0</title>
<polygon fill="none" stroke="#000000" points="121.6831,-241.7 121.6831,-283.3 234.3405,-283.3 234.3405,-241.7 121.6831,-241.7"/>
<text text-anchor="start" x="129.6831" y="-266.7" font-family="Times,serif" font-size="14.00" fill="#000000">; entry </text>
<text text-anchor="start" x="129.6831" y="-249.9" font-family="Times,serif" font-size="14.00" fill="#000000"> Br &lt;label&gt; %17 </text>
</g>
<!-- a1 -->
<g id="node2" class="node">
<title>a1</title>
<polygon fill="none" stroke="#000000" points="0,-129.5 0,-204.7 356.0236,-204.7 356.0236,-129.5 0,-129.5"/>
<text text-anchor="start" x="8" y="-188.1" font-family="Times,serif" font-size="14.00" fill="#000000">; label 17 </text>
<text text-anchor="start" x="8" y="-171.3" font-family="Times,serif" font-size="14.00" fill="#000000"> i32 %30 = PHI i32 %31 &lt;label&gt; %20 i32 0 &lt;label&gt; %entry </text>
<text text-anchor="start" x="8" y="-154.5" font-family="Times,serif" font-size="14.00" fill="#000000"> i32 %31 = PHI i32 %35 &lt;label&gt; %20 i32 3 &lt;label&gt; %entry </text>
<text text-anchor="start" x="8" y="-137.7" font-family="Times,serif" font-size="14.00" fill="#000000"> Br NE i32 %31 i32 0 &lt;label&gt; %20 &lt;label&gt; %24 </text>
</g>
<!-- a0&#45;&gt;a1 -->
<g id="edge1" class="edge">
<title>a0&#45;&gt;a1</title>
<path fill="none" stroke="#000000" d="M178.0118,-241.3276C178.0118,-233.4264 178.0118,-224.1012 178.0118,-214.7772"/>
<polygon fill="#000000" stroke="#000000" points="181.5119,-214.7275 178.0118,-204.7276 174.5119,-214.7276 181.5119,-214.7275"/>
</g>
<!-- a2 -->
<g id="node3" class="node">
<title>a2</title>
<polygon fill="none" stroke="#000000" points="73.3201,-.5 73.3201,-92.5 282.7035,-92.5 282.7035,-.5 73.3201,-.5"/>
<text text-anchor="start" x="81.3201" y="-75.9" font-family="Times,serif" font-size="14.00" fill="#000000">; label 20 </text>
<text text-anchor="start" x="81.3201" y="-59.1" font-family="Times,serif" font-size="14.00" fill="#000000"> i32 %33 = Div i32 %30 i32 %31 </text>
<text text-anchor="start" x="81.3201" y="-42.3" font-family="Times,serif" font-size="14.00" fill="#000000"> i32 %34 = Mul i32 %33 i32 %31 </text>
<text text-anchor="start" x="81.3201" y="-25.5" font-family="Times,serif" font-size="14.00" fill="#000000"> i32 %35 = Sub i32 %30 i32 %34 </text>
<text text-anchor="start" x="81.3201" y="-8.7" font-family="Times,serif" font-size="14.00" fill="#000000"> Br &lt;label&gt; %17 </text>
</g>
<!-- a1&#45;&gt;a2 -->
<g id="edge2" class="edge">
<title>a1&#45;&gt;a2</title>
<path fill="none" stroke="#000000" d="M171.697,-129.2723C171.3554,-120.8404 171.2149,-111.7245 171.2755,-102.7299"/>
<polygon fill="#000000" stroke="#000000" points="174.7759,-102.7215 171.4293,-92.6691 167.7767,-102.6144 174.7759,-102.7215"/>
</g>
<!-- a3 -->
<g id="node4" class="node">
<title>a3</title>
<polygon fill="none" stroke="#000000" points="301.1836,-25.7 301.1836,-67.3 370.84,-67.3 370.84,-25.7 301.1836,-25.7"/>
<text text-anchor="start" x="309.1836" y="-50.7" font-family="Times,serif" font-size="14.00" fill="#000000">; label 24</text>
<text text-anchor="start" x="309.1836" y="-33.9" font-family="Times,serif" font-size="14.00" fill="#000000"> ret i32 0 </text>
</g>
<!-- a1&#45;&gt;a3 -->
<g id="edge3" class="edge">
<title>a1&#45;&gt;a3</title>
<path fill="none" stroke="#000000" d="M241.724,-129.4683C258.6422,-118.4752 276.5066,-105.9198 292.0118,-93 298.4957,-87.5972 305.0045,-81.3082 310.9529,-75.1341"/>
<polygon fill="#000000" stroke="#000000" points="313.8662,-77.1433 318.1438,-67.4503 308.7553,-72.3601 313.8662,-77.1433"/>
</g>
<!-- a2&#45;&gt;a1 -->
<g id="edge4" class="edge">
<title>a2&#45;&gt;a1</title>
<path fill="none" stroke="#000000" d="M184.5943,-92.6691C184.8039,-101.3638 184.8168,-110.4739 184.6329,-119.2197"/>
<polygon fill="#000000" stroke="#000000" points="181.1329,-119.1703 184.3266,-129.2723 188.1296,-119.3835 181.1329,-119.1703"/>
</g>
</g>
</svg>
