<?xml version="1.0" encoding="UTF-8" standalone="no"?>
<!DOCTYPE svg PUBLIC "-//W3C//DTD SVG 1.1//EN"
 "http://www.w3.org/Graphics/SVG/1.1/DTD/svg11.dtd">
<!-- Generated by graphviz version 2.40.1 (20161225.0304)
 -->
<!-- Title: G Pages: 1 -->
<svg width="239pt" height="245pt"
 viewBox="0.00 0.00 238.82 245.00" xmlns="http://www.w3.org/2000/svg" xmlns:xlink="http://www.w3.org/1999/xlink">
<g id="graph0" class="graph" transform="scale(1 1) rotate(0) translate(4 241)">
<title>G</title>
<polygon fill="#ffffff" stroke="transparent" points="-4,4 -4,-241 234.8202,-241 234.8202,4 -4,4"/>
<!-- A -->
<g id="node1" class="node">
<title>A</title>
<text text-anchor="middle" x="115.4101" y="-214.8" font-family="Times,serif" font-size="14.00" fill="#000000">LIVE&#45;IN:%1,%2,%3,%4,%5,%10</text>
</g>
<!-- B -->
<g id="node2" class="node">
<title>B</title>
<polygon fill="none" stroke="#000000" points="0,-72.5 0,-164.5 230.8202,-164.5 230.8202,-72.5 0,-72.5"/>
<text text-anchor="start" x="8" y="-147.9" font-family="Times,serif" font-size="14.00" fill="#000000">%6 = PHI &lt;label x&gt;, %10, &lt;entry&gt;, 0 </text>
<text text-anchor="start" x="8" y="-131.1" font-family="Times,serif" font-size="14.00" fill="#000000"> %3 = %1 + %2 </text>
<text text-anchor="start" x="8" y="-114.3" font-family="Times,serif" font-size="14.00" fill="#000000"> %4 = %1 + %3 </text>
<text text-anchor="start" x="8" y="-97.5" font-family="Times,serif" font-size="14.00" fill="#000000"> %5 = %4 + %3 </text>
<text text-anchor="start" x="8" y="-80.7" font-family="Times,serif" font-size="14.00" fill="#000000"> Br &lt;Next Block&gt; </text>
</g>
<!-- A&#45;&gt;B -->
<g id="edge1" class="edge">
<title>A&#45;&gt;B</title>
<path fill="none" stroke="#000000" d="M115.4101,-200.5668C115.4101,-193.1593 115.4101,-184.1849 115.4101,-174.9264"/>
<polygon fill="#000000" stroke="#000000" points="118.9102,-174.8293 115.4101,-164.8293 111.9102,-174.8293 118.9102,-174.8293"/>
</g>
<!-- C -->
<g id="node3" class="node">
<title>C</title>
<text text-anchor="middle" x="115.4101" y="-13.8" font-family="Times,serif" font-size="14.00" fill="#000000">LIVE&#45;OUT %3,%4,%5,%10</text>
</g>
<!-- B&#45;&gt;C -->
<g id="edge2" class="edge">
<title>B&#45;&gt;C</title>
<path fill="none" stroke="#000000" d="M115.4101,-72.368C115.4101,-63.47 115.4101,-54.3987 115.4101,-46.28"/>
<polygon fill="#000000" stroke="#000000" points="118.9102,-46.2507 115.4101,-36.2508 111.9102,-46.2508 118.9102,-46.2507"/>
</g>
</g>
</svg>
