<?xml version="1.0" encoding="UTF-8" standalone="no"?>
<!DOCTYPE svg PUBLIC "-//W3C//DTD SVG 1.1//EN"
 "http://www.w3.org/Graphics/SVG/1.1/DTD/svg11.dtd">
<!-- Generated by graphviz version 2.40.1 (20161225.0304)
 -->
<!-- Title: CFG_11SimplifyCFG Pages: 1 -->
<svg width="545pt" height="580pt"
 viewBox="0.00 0.00 545.00 580.00" xmlns="http://www.w3.org/2000/svg" xmlns:xlink="http://www.w3.org/1999/xlink">
<g id="graph0" class="graph" transform="scale(1 1) rotate(0) translate(4 576)">
<title>CFG_11SimplifyCFG</title>
<polygon fill="#ffffff" stroke="transparent" points="-4,4 -4,-576 541,-576 541,4 -4,4"/>
<text text-anchor="middle" x="268.5" y="-7.8" font-family="Times,serif" font-size="14.00" fill="#000000"> 11SimplifyCFG </text>
<!-- doubleWhile_label_entry -->
<g id="node1" class="node">
<title>doubleWhile_label_entry</title>
<polygon fill="none" stroke="#000000" points="107,-511 107,-564 229,-564 229,-511 107,-511"/>
<text text-anchor="start" x="115" y="-548.8" font-family="Times,serif" font-size="14.00" fill="#000000">@doubleWhile</text>
<text text-anchor="start" x="115" y="-533.8" font-family="Times,serif" font-size="14.00" fill="#000000">label_entry ;preds: </text>
<text text-anchor="start" x="115" y="-518.8" font-family="Times,serif" font-size="14.00" fill="#000000"> Br label_ %3 </text>
</g>
<!-- doubleWhile_label_3 -->
<g id="node2" class="node">
<title>doubleWhile_label_3</title>
<polygon fill="none" stroke="#000000" points="0,-368.5 0,-466.5 336,-466.5 336,-368.5 0,-368.5"/>
<text text-anchor="start" x="8" y="-451.3" font-family="Times,serif" font-size="14.00" fill="#000000">@doubleWhile</text>
<text text-anchor="start" x="8" y="-436.3" font-family="Times,serif" font-size="14.00" fill="#000000">label_3 ;preds: %18 %entry </text>
<text text-anchor="start" x="8" y="-421.3" font-family="Times,serif" font-size="14.00" fill="#000000"> i32 %23 = PHI i32 %20 label_ %18 i32 7 label_ %entry </text>
<text text-anchor="start" x="8" y="-406.3" font-family="Times,serif" font-size="14.00" fill="#000000"> i32 %24 = PHI i32 %8 label_ %18 i32 5 label_ %entry </text>
<text text-anchor="start" x="8" y="-391.3" font-family="Times,serif" font-size="14.00" fill="#000000"> i1 %5 = CmpLT i32 %24 i32 100 </text>
<text text-anchor="start" x="8" y="-376.3" font-family="Times,serif" font-size="14.00" fill="#000000"> Br i1 %5 label_ %6 label_ %21 </text>
</g>
<!-- doubleWhile_label_entry&#45;&gt;doubleWhile_label_3 -->
<g id="edge1" class="edge">
<title>doubleWhile_label_entry&#45;&gt;doubleWhile_label_3</title>
<path fill="none" stroke="#000000" d="M168,-510.8681C168,-500.7266 168,-488.7201 168,-476.7533"/>
<polygon fill="#000000" stroke="#000000" points="171.5001,-476.7522 168,-466.7523 164.5001,-476.7523 171.5001,-476.7522"/>
</g>
<!-- doubleWhile_label_21 -->
<g id="node3" class="node">
<title>doubleWhile_label_21</title>
<polygon fill="none" stroke="#000000" points="10,-271 10,-324 140,-324 140,-271 10,-271"/>
<text text-anchor="start" x="18" y="-308.8" font-family="Times,serif" font-size="14.00" fill="#000000">@doubleWhile</text>
<text text-anchor="start" x="18" y="-293.8" font-family="Times,serif" font-size="14.00" fill="#000000">label_21 ;preds: %3 </text>
<text text-anchor="start" x="18" y="-278.8" font-family="Times,serif" font-size="14.00" fill="#000000"> ret i32 %23 </text>
</g>
<!-- doubleWhile_label_3&#45;&gt;doubleWhile_label_21 -->
<g id="edge2" class="edge">
<title>doubleWhile_label_3&#45;&gt;doubleWhile_label_21</title>
<path fill="none" stroke="#000000" d="M129.905,-368.3452C120.4596,-356.1575 110.5355,-343.3523 101.7624,-332.0321"/>
<polygon fill="#000000" stroke="#000000" points="104.4932,-329.842 95.6009,-324.0819 98.9602,-334.13 104.4932,-329.842"/>
</g>
<!-- doubleWhile_label_6 -->
<g id="node4" class="node">
<title>doubleWhile_label_6</title>
<polygon fill="none" stroke="#000000" points="235.5,-263.5 235.5,-331.5 426.5,-331.5 426.5,-263.5 235.5,-263.5"/>
<text text-anchor="start" x="243.5" y="-316.3" font-family="Times,serif" font-size="14.00" fill="#000000">@doubleWhile</text>
<text text-anchor="start" x="243.5" y="-301.3" font-family="Times,serif" font-size="14.00" fill="#000000">label_6 ;preds: %3 </text>
<text text-anchor="start" x="243.5" y="-286.3" font-family="Times,serif" font-size="14.00" fill="#000000"> i32 %8 = Add i32 %24 i32 30 </text>
<text text-anchor="start" x="243.5" y="-271.3" font-family="Times,serif" font-size="14.00" fill="#000000"> Br label_ %10 </text>
</g>
<!-- doubleWhile_label_3&#45;&gt;doubleWhile_label_6 -->
<g id="edge3" class="edge">
<title>doubleWhile_label_3&#45;&gt;doubleWhile_label_6</title>
<path fill="none" stroke="#000000" d="M234.7686,-368.3452C248.6022,-358.161 263.0215,-347.5455 276.36,-337.7258"/>
<polygon fill="#000000" stroke="#000000" points="278.5326,-340.4726 284.5106,-331.7253 274.3825,-334.8354 278.5326,-340.4726"/>
</g>
<!-- doubleWhile_label_10 -->
<g id="node5" class="node">
<title>doubleWhile_label_10</title>
<polygon fill="none" stroke="#000000" points="203,-143.5 203,-226.5 537,-226.5 537,-143.5 203,-143.5"/>
<text text-anchor="start" x="211" y="-211.3" font-family="Times,serif" font-size="14.00" fill="#000000">@doubleWhile</text>
<text text-anchor="start" x="211" y="-196.3" font-family="Times,serif" font-size="14.00" fill="#000000">label_10 ;preds: %13 %6 </text>
<text text-anchor="start" x="211" y="-181.3" font-family="Times,serif" font-size="14.00" fill="#000000"> i32 %25 = PHI i32 %23 label_ %6 i32 %17 label_ %13 </text>
<text text-anchor="start" x="211" y="-166.3" font-family="Times,serif" font-size="14.00" fill="#000000"> i1 %12 = CmpLT i32 %25 i32 100 </text>
<text text-anchor="start" x="211" y="-151.3" font-family="Times,serif" font-size="14.00" fill="#000000"> Br i1 %12 label_ %13 label_ %18 </text>
</g>
<!-- doubleWhile_label_6&#45;&gt;doubleWhile_label_10 -->
<g id="edge4" class="edge">
<title>doubleWhile_label_6&#45;&gt;doubleWhile_label_10</title>
<path fill="none" stroke="#000000" d="M342.8071,-263.441C345.7689,-254.8973 349.0127,-245.5402 352.1958,-236.3583"/>
<polygon fill="#000000" stroke="#000000" points="355.508,-237.4894 355.4765,-226.8946 348.8941,-235.1965 355.508,-237.4894"/>
</g>
<!-- doubleWhile_label_18 -->
<g id="node6" class="node">
<title>doubleWhile_label_18</title>
<polygon fill="none" stroke="#000000" points="51.5,-31 51.5,-99 254.5,-99 254.5,-31 51.5,-31"/>
<text text-anchor="start" x="59.5" y="-83.8" font-family="Times,serif" font-size="14.00" fill="#000000">@doubleWhile</text>
<text text-anchor="start" x="59.5" y="-68.8" font-family="Times,serif" font-size="14.00" fill="#000000">label_18 ;preds: %10 </text>
<text text-anchor="start" x="59.5" y="-53.8" font-family="Times,serif" font-size="14.00" fill="#000000"> i32 %20 = Sub i32 %25 i32 100 </text>
<text text-anchor="start" x="59.5" y="-38.8" font-family="Times,serif" font-size="14.00" fill="#000000"> Br label_ %3 </text>
</g>
<!-- doubleWhile_label_10&#45;&gt;doubleWhile_label_18 -->
<g id="edge5" class="edge">
<title>doubleWhile_label_10&#45;&gt;doubleWhile_label_18</title>
<path fill="none" stroke="#000000" d="M294.7129,-143.3666C271.5867,-130.5779 246.2325,-116.5572 223.4433,-103.9548"/>
<polygon fill="#000000" stroke="#000000" points="224.9596,-100.7938 214.5147,-99.0174 221.5721,-106.9196 224.9596,-100.7938"/>
</g>
<!-- doubleWhile_label_13 -->
<g id="node7" class="node">
<title>doubleWhile_label_13</title>
<polygon fill="none" stroke="#000000" points="273,-23.5 273,-106.5 483,-106.5 483,-23.5 273,-23.5"/>
<text text-anchor="start" x="281" y="-91.3" font-family="Times,serif" font-size="14.00" fill="#000000">@doubleWhile</text>
<text text-anchor="start" x="281" y="-76.3" font-family="Times,serif" font-size="14.00" fill="#000000">label_13 ;preds: %10 </text>
<text text-anchor="start" x="281" y="-61.3" font-family="Times,serif" font-size="14.00" fill="#000000"> i32 %16 = Mul i32 %8 i32 4 </text>
<text text-anchor="start" x="281" y="-46.3" font-family="Times,serif" font-size="14.00" fill="#000000"> i32 %17 = Add i32 %25 i32 %16 </text>
<text text-anchor="start" x="281" y="-31.3" font-family="Times,serif" font-size="14.00" fill="#000000"> Br label_ %10 </text>
</g>
<!-- doubleWhile_label_10&#45;&gt;doubleWhile_label_13 -->
<g id="edge6" class="edge">
<title>doubleWhile_label_10&#45;&gt;doubleWhile_label_13</title>
<path fill="none" stroke="#000000" d="M366.3149,-143.3666C366.6111,-134.7103 367.1494,-125.4896 367.8751,-116.5264"/>
<polygon fill="#000000" stroke="#000000" points="371.3616,-116.833 368.7711,-106.5598 364.3897,-116.2062 371.3616,-116.833"/>
</g>
<!-- doubleWhile_label_18&#45;&gt;doubleWhile_label_3 -->
<g id="edge8" class="edge">
<title>doubleWhile_label_18&#45;&gt;doubleWhile_label_3</title>
<path fill="none" stroke="#000000" d="M154.4592,-99.2901C157.014,-159.3294 162.3254,-284.1476 165.4835,-358.3622"/>
<polygon fill="#000000" stroke="#000000" points="161.9922,-358.6443 165.9143,-368.4864 168.9859,-358.3466 161.9922,-358.6443"/>
</g>
<!-- doubleWhile_label_13&#45;&gt;doubleWhile_label_10 -->
<g id="edge7" class="edge">
<title>doubleWhile_label_13&#45;&gt;doubleWhile_label_10</title>
<path fill="none" stroke="#000000" d="M381.6876,-106.5598C381.3928,-115.2129 380.8557,-124.4327 380.1311,-133.3974"/>
<polygon fill="#000000" stroke="#000000" points="376.6443,-133.0937 379.2362,-143.3666 383.6163,-133.7196 376.6443,-133.0937"/>
</g>
<!-- main_label_entry -->
<g id="node8" class="node">
<title>main_label_entry</title>
<polygon fill="none" stroke="#000000" points="247,-503.5 247,-571.5 423,-571.5 423,-503.5 247,-503.5"/>
<text text-anchor="start" x="255" y="-556.3" font-family="Times,serif" font-size="14.00" fill="#000000">@main</text>
<text text-anchor="start" x="255" y="-541.3" font-family="Times,serif" font-size="14.00" fill="#000000">label_entry ;preds: </text>
<text text-anchor="start" x="255" y="-526.3" font-family="Times,serif" font-size="14.00" fill="#000000"> i32 %0 = Call doubleWhile </text>
<text text-anchor="start" x="255" y="-511.3" font-family="Times,serif" font-size="14.00" fill="#000000"> ret i32 %0 </text>
</g>
</g>
</svg>
