<?xml version="1.0" encoding="UTF-8" standalone="no"?><!DOCTYPE svg PUBLIC "-//W3C//DTD SVG 1.1//EN" "http://www.w3.org/Graphics/SVG/1.1/DTD/svg11.dtd"><!-- Generated by graphviz version 2.40.1 (20161225.0304)
 --><!-- Title: cluster17 Pages: 1 --><svg xmlns="http://www.w3.org/2000/svg" xmlns:xlink="http://www.w3.org/1999/xlink" width="278pt" height="213pt" viewBox="0.00 0.00 278.00 212.80">
<g id="graph0" class="graph" transform="scale(1 1) rotate(0) translate(4 208.8)">
<title>cluster17</title>
<polygon fill="#ffffff" stroke="transparent" points="-4,4 -4,-208.8 274,-208.8 274,4 -4,4"/>
<text text-anchor="middle" x="135" y="-8.2" font-family="Times,serif" font-size="14.00" fill="#000000">CFG的支配树</text>
<!-- n018 -->
<g id="node1" class="node">
<title>n018</title>
<ellipse fill="none" stroke="#000000" cx="135" cy="-186.8" rx="30.7577" ry="18"/>
<text text-anchor="middle" x="135" y="-182.6" font-family="Times,serif" font-size="14.00" fill="#000000">entry</text>
</g>
<!-- n019 -->
<g id="node2" class="node">
<title>n019</title>
<ellipse fill="none" stroke="#000000" cx="135" cy="-114.8" rx="27" ry="18"/>
<text text-anchor="middle" x="135" y="-110.6" font-family="Times,serif" font-size="14.00" fill="#000000">A</text>
</g>
<!-- n018&#45;&#45;n019 -->
<g id="edge1" class="edge">
<title>n018--n019</title>
<path fill="none" stroke="#000000" d="M135,-168.6314C135,-157.8 135,-144.0876 135,-133.2133"/>
</g>
<!-- n020 -->
<g id="node3" class="node">
<title>n020</title>
<ellipse fill="none" stroke="#000000" cx="27" cy="-42.8" rx="27" ry="18"/>
<text text-anchor="middle" x="27" y="-38.6" font-family="Times,serif" font-size="14.00" fill="#000000">B</text>
</g>
<!-- n019&#45;&#45;n020 -->
<g id="edge2" class="edge">
<title>n019--n020</title>
<path fill="none" stroke="#000000" d="M115.6918,-101.9278C96.0337,-88.8225 65.7386,-68.6257 46.1411,-55.5607"/>
</g>
<!-- n021 -->
<g id="node4" class="node">
<title>n021</title>
<ellipse fill="none" stroke="#000000" cx="99" cy="-42.8" rx="27" ry="18"/>
<text text-anchor="middle" x="99" y="-38.6" font-family="Times,serif" font-size="14.00" fill="#000000">C</text>
</g>
<!-- n019&#45;&#45;n021 -->
<g id="edge3" class="edge">
<title>n019--n021</title>
<path fill="none" stroke="#000000" d="M126.2854,-97.3708C120.6253,-86.0506 113.2784,-71.3568 107.6343,-60.0687"/>
</g>
<!-- n022 -->
<g id="node5" class="node">
<title>n022</title>
<ellipse fill="none" stroke="#000000" cx="171" cy="-42.8" rx="27" ry="18"/>
<text text-anchor="middle" x="171" y="-38.6" font-family="Times,serif" font-size="14.00" fill="#000000">D</text>
</g>
<!-- n019&#45;&#45;n022 -->
<g id="edge4" class="edge">
<title>n019--n022</title>
<path fill="none" stroke="#000000" d="M143.7146,-97.3708C149.3747,-86.0506 156.7216,-71.3568 162.3657,-60.0687"/>
</g>
<!-- n023 -->
<g id="node6" class="node">
<title>n023</title>
<ellipse fill="none" stroke="#000000" cx="243" cy="-42.8" rx="27" ry="18"/>
<text text-anchor="middle" x="243" y="-38.6" font-family="Times,serif" font-size="14.00" fill="#000000">E</text>
</g>
<!-- n019&#45;&#45;n023 -->
<g id="edge5" class="edge">
<title>n019--n023</title>
<path fill="none" stroke="#000000" d="M154.3082,-101.9278C173.9663,-88.8225 204.2614,-68.6257 223.8589,-55.5607"/>
</g>
</g>
</svg>