<?xml version="1.0" encoding="UTF-8" standalone="no"?>
<!DOCTYPE svg PUBLIC "-//W3C//DTD SVG 1.1//EN"
 "http://www.w3.org/Graphics/SVG/1.1/DTD/svg11.dtd">
<!-- Generated by graphviz version 2.40.1 (20161225.0304)
 -->
<!-- Title: %0 Pages: 1 -->
<svg width="576pt" height="269pt"
 viewBox="0.00 0.00 576.00 269.40" xmlns="http://www.w3.org/2000/svg" xmlns:xlink="http://www.w3.org/1999/xlink">
<g id="graph0" class="graph" transform="scale(1 1) rotate(0) translate(4 265.4)">
<title>%0</title>
<polygon fill="#ffffff" stroke="transparent" points="-4,4 -4,-265.4 572,-265.4 572,4 -4,4"/>
<!-- a0 -->
<g id="node1" class="node">
<title>a0</title>
<polygon fill="none" stroke="#000000" points="0,-185.7 0,-260.9 54,-260.9 54,-185.7 0,-185.7"/>
<text text-anchor="start" x="8" y="-244.3" font-family="Times,serif" font-size="14.00" fill="#000000">x = </text>
<text text-anchor="start" x="8" y="-227.5" font-family="Times,serif" font-size="14.00" fill="#000000"> = x</text>
<text text-anchor="start" x="8" y="-210.7" font-family="Times,serif" font-size="14.00" fill="#000000"> y = </text>
<text text-anchor="start" x="8" y="-193.9" font-family="Times,serif" font-size="14.00" fill="#000000"> z = </text>
</g>
<!-- a1 -->
<g id="node2" class="node">
<title>a1</title>
<polygon fill="none" stroke="#000000" points="0,-112.7 0,-148.7 54,-148.7 54,-112.7 0,-112.7"/>
<text text-anchor="middle" x="26.9473" y="-126.5" font-family="Times,serif" font-size="14.00" fill="#000000">=y</text>
</g>
<!-- a0&#45;&gt;a1 -->
<g id="edge1" class="edge">
<title>a0&#45;&gt;a1</title>
<path fill="none" stroke="#000000" d="M27,-185.636C27,-176.6935 27,-167.3054 27,-158.8705"/>
<polygon fill="#000000" stroke="#000000" points="30.5001,-158.8015 27,-148.8016 23.5001,-158.8016 30.5001,-158.8015"/>
</g>
<!-- a4 -->
<g id="node5" class="node">
<title>a4</title>
<polygon fill="none" stroke="#000000" points="47,-20.1 47,-56.1 101,-56.1 101,-20.1 47,-20.1"/>
<text text-anchor="middle" x="73.5546" y="-33.9" font-family="Times,serif" font-size="14.00" fill="#000000">=z</text>
</g>
<!-- a1&#45;&gt;a4 -->
<g id="edge2" class="edge">
<title>a1&#45;&gt;a4</title>
<path fill="none" stroke="#000000" d="M36.2857,-112.4052C43.1092,-98.9614 52.4939,-80.4717 60.1945,-65.2998"/>
<polygon fill="#000000" stroke="#000000" points="63.3286,-66.858 64.7336,-56.3568 57.0866,-63.6898 63.3286,-66.858"/>
</g>
<!-- a2 -->
<g id="node3" class="node">
<title>a2</title>
<polygon fill="none" stroke="#000000" points="72,-185.7 72,-260.9 126,-260.9 126,-185.7 72,-185.7"/>
<text text-anchor="start" x="80" y="-244.3" font-family="Times,serif" font-size="14.00" fill="#000000">x = </text>
<text text-anchor="start" x="80" y="-227.5" font-family="Times,serif" font-size="14.00" fill="#000000"> = x</text>
<text text-anchor="start" x="80" y="-210.7" font-family="Times,serif" font-size="14.00" fill="#000000"> y = </text>
<text text-anchor="start" x="80" y="-193.9" font-family="Times,serif" font-size="14.00" fill="#000000"> z = </text>
</g>
<!-- a3 -->
<g id="node4" class="node">
<title>a3</title>
<polygon fill="none" stroke="#000000" points="72,-112.7 72,-148.7 126,-148.7 126,-112.7 72,-112.7"/>
<text text-anchor="middle" x="98.9473" y="-126.5" font-family="Times,serif" font-size="14.00" fill="#000000">=y</text>
</g>
<!-- a2&#45;&gt;a3 -->
<g id="edge3" class="edge">
<title>a2&#45;&gt;a3</title>
<path fill="none" stroke="#000000" d="M99,-185.636C99,-176.6935 99,-167.3054 99,-158.8705"/>
<polygon fill="#000000" stroke="#000000" points="102.5001,-158.8015 99,-148.8016 95.5001,-158.8016 102.5001,-158.8015"/>
</g>
<!-- a3&#45;&gt;a4 -->
<g id="edge4" class="edge">
<title>a3&#45;&gt;a4</title>
<path fill="none" stroke="#000000" d="M94.0608,-112.4052C90.4997,-99.2151 85.6273,-81.1676 81.5762,-66.1621"/>
<polygon fill="#000000" stroke="#000000" points="84.9145,-65.0988 78.9289,-56.3568 78.1565,-66.9234 84.9145,-65.0988"/>
</g>
<!-- b0 -->
<g id="node6" class="node">
<title>b0</title>
<polygon fill="none" stroke="#000000" points="154,-185.7 154,-260.9 208,-260.9 208,-185.7 154,-185.7"/>
<text text-anchor="start" x="162" y="-244.3" font-family="Times,serif" font-size="14.00" fill="#000000">x1 = </text>
<text text-anchor="start" x="162" y="-227.5" font-family="Times,serif" font-size="14.00" fill="#000000"> = x1 </text>
<text text-anchor="start" x="162" y="-210.7" font-family="Times,serif" font-size="14.00" fill="#000000"> y1 = </text>
<text text-anchor="start" x="162" y="-193.9" font-family="Times,serif" font-size="14.00" fill="#000000"> z1 = </text>
</g>
<!-- b1 -->
<g id="node7" class="node">
<title>b1</title>
<polygon fill="none" stroke="#000000" points="154,-112.7 154,-148.7 208,-148.7 208,-112.7 154,-112.7"/>
<text text-anchor="middle" x="180.9473" y="-126.5" font-family="Times,serif" font-size="14.00" fill="#000000">=y1</text>
</g>
<!-- b0&#45;&gt;b1 -->
<g id="edge5" class="edge">
<title>b0&#45;&gt;b1</title>
<path fill="none" stroke="#000000" d="M181,-185.636C181,-176.6935 181,-167.3054 181,-158.8705"/>
<polygon fill="#000000" stroke="#000000" points="184.5001,-158.8015 181,-148.8016 177.5001,-158.8016 184.5001,-158.8015"/>
</g>
<!-- b4 -->
<g id="node10" class="node">
<title>b4</title>
<polygon fill="none" stroke="#000000" points="150.0618,-.5 150.0618,-75.7 243.9382,-75.7 243.9382,-.5 150.0618,-.5"/>
<text text-anchor="start" x="158.0618" y="-59.1" font-family="Times,serif" font-size="14.00" fill="#000000">x3=φ(x1,x2)</text>
<text text-anchor="start" x="158.0618" y="-42.3" font-family="Times,serif" font-size="14.00" fill="#000000"> y3=φ(y1,y2) </text>
<text text-anchor="start" x="158.0618" y="-25.5" font-family="Times,serif" font-size="14.00" fill="#000000"> z3=φ(z1,z2)</text>
<text text-anchor="middle" x="197" y="-8.7" font-family="Times,serif" font-size="14.00" fill="#000000"> =z3</text>
</g>
<!-- b1&#45;&gt;b4 -->
<g id="edge6" class="edge">
<title>b1&#45;&gt;b4</title>
<path fill="none" stroke="#000000" d="M184.1611,-112.4052C185.4994,-104.6596 187.1272,-95.2391 188.7679,-85.7431"/>
<polygon fill="#000000" stroke="#000000" points="192.2171,-86.337 190.4709,-75.8871 185.3193,-85.1451 192.2171,-86.337"/>
</g>
<!-- b2 -->
<g id="node8" class="node">
<title>b2</title>
<polygon fill="none" stroke="#000000" points="226,-185.7 226,-260.9 280,-260.9 280,-185.7 226,-185.7"/>
<text text-anchor="start" x="234" y="-244.3" font-family="Times,serif" font-size="14.00" fill="#000000">x2 = </text>
<text text-anchor="start" x="234" y="-227.5" font-family="Times,serif" font-size="14.00" fill="#000000"> = x2 </text>
<text text-anchor="start" x="234" y="-210.7" font-family="Times,serif" font-size="14.00" fill="#000000"> y2 = </text>
<text text-anchor="start" x="234" y="-193.9" font-family="Times,serif" font-size="14.00" fill="#000000"> z2 = </text>
</g>
<!-- b3 -->
<g id="node9" class="node">
<title>b3</title>
<polygon fill="none" stroke="#000000" points="226,-112.7 226,-148.7 280,-148.7 280,-112.7 226,-112.7"/>
<text text-anchor="middle" x="252.9473" y="-126.5" font-family="Times,serif" font-size="14.00" fill="#000000">=y2</text>
</g>
<!-- b2&#45;&gt;b3 -->
<g id="edge7" class="edge">
<title>b2&#45;&gt;b3</title>
<path fill="none" stroke="#000000" d="M253,-185.636C253,-176.6935 253,-167.3054 253,-158.8705"/>
<polygon fill="#000000" stroke="#000000" points="256.5001,-158.8015 253,-148.8016 249.5001,-158.8016 256.5001,-158.8015"/>
</g>
<!-- b3&#45;&gt;b4 -->
<g id="edge8" class="edge">
<title>b3&#45;&gt;b4</title>
<path fill="none" stroke="#000000" d="M241.9362,-112.4052C237.0548,-104.3335 231.0734,-94.4428 225.0867,-84.5433"/>
<polygon fill="#000000" stroke="#000000" points="228.0216,-82.6328 219.8518,-75.8871 222.0317,-86.2552 228.0216,-82.6328"/>
</g>
<!-- c0 -->
<g id="node11" class="node">
<title>c0</title>
<polygon fill="none" stroke="#000000" points="298,-185.7 298,-260.9 352,-260.9 352,-185.7 298,-185.7"/>
<text text-anchor="start" x="306" y="-244.3" font-family="Times,serif" font-size="14.00" fill="#000000">x1 = </text>
<text text-anchor="start" x="306" y="-227.5" font-family="Times,serif" font-size="14.00" fill="#000000"> = x1 </text>
<text text-anchor="start" x="306" y="-210.7" font-family="Times,serif" font-size="14.00" fill="#000000"> y1 = </text>
<text text-anchor="start" x="306" y="-193.9" font-family="Times,serif" font-size="14.00" fill="#000000"> z1 = </text>
</g>
<!-- c1 -->
<g id="node12" class="node">
<title>c1</title>
<polygon fill="none" stroke="#000000" points="298,-112.7 298,-148.7 352,-148.7 352,-112.7 298,-112.7"/>
<text text-anchor="middle" x="324.9473" y="-126.5" font-family="Times,serif" font-size="14.00" fill="#000000">=y1</text>
</g>
<!-- c0&#45;&gt;c1 -->
<g id="edge9" class="edge">
<title>c0&#45;&gt;c1</title>
<path fill="none" stroke="#000000" d="M325,-185.636C325,-176.6935 325,-167.3054 325,-158.8705"/>
<polygon fill="#000000" stroke="#000000" points="328.5001,-158.8015 325,-148.8016 321.5001,-158.8016 328.5001,-158.8015"/>
</g>
<!-- c4 -->
<g id="node15" class="node">
<title>c4</title>
<polygon fill="none" stroke="#000000" points="293.4899,-8.9 293.4899,-67.3 388.5101,-67.3 388.5101,-8.9 293.4899,-8.9"/>
<text text-anchor="start" x="301.4899" y="-50.7" font-family="Times,serif" font-size="14.00" fill="#000000">y3 = φ(y1,y2)</text>
<text text-anchor="start" x="301.4899" y="-33.9" font-family="Times,serif" font-size="14.00" fill="#000000"> z3 = φ(z1,z2)</text>
<text text-anchor="middle" x="341" y="-17.1" font-family="Times,serif" font-size="14.00" fill="#000000"> =z3</text>
</g>
<!-- c1&#45;&gt;c4 -->
<g id="edge10" class="edge">
<title>c1&#45;&gt;c4</title>
<path fill="none" stroke="#000000" d="M328.1611,-112.4052C329.8829,-102.4401 332.0838,-89.7026 334.1751,-77.599"/>
<polygon fill="#000000" stroke="#000000" points="337.6393,-78.1057 335.8932,-67.6558 330.7416,-76.9138 337.6393,-78.1057"/>
</g>
<!-- c2 -->
<g id="node13" class="node">
<title>c2</title>
<polygon fill="none" stroke="#000000" points="370,-185.7 370,-260.9 424,-260.9 424,-185.7 370,-185.7"/>
<text text-anchor="start" x="378" y="-244.3" font-family="Times,serif" font-size="14.00" fill="#000000">x2 = </text>
<text text-anchor="start" x="378" y="-227.5" font-family="Times,serif" font-size="14.00" fill="#000000"> = x2 </text>
<text text-anchor="start" x="378" y="-210.7" font-family="Times,serif" font-size="14.00" fill="#000000"> y2 = </text>
<text text-anchor="start" x="378" y="-193.9" font-family="Times,serif" font-size="14.00" fill="#000000"> z2 = </text>
</g>
<!-- c3 -->
<g id="node14" class="node">
<title>c3</title>
<polygon fill="none" stroke="#000000" points="370,-112.7 370,-148.7 424,-148.7 424,-112.7 370,-112.7"/>
<text text-anchor="middle" x="396.9473" y="-126.5" font-family="Times,serif" font-size="14.00" fill="#000000">=y2</text>
</g>
<!-- c2&#45;&gt;c3 -->
<g id="edge11" class="edge">
<title>c2&#45;&gt;c3</title>
<path fill="none" stroke="#000000" d="M397,-185.636C397,-176.6935 397,-167.3054 397,-158.8705"/>
<polygon fill="#000000" stroke="#000000" points="400.5001,-158.8015 397,-148.8016 393.5001,-158.8016 400.5001,-158.8015"/>
</g>
<!-- c3&#45;&gt;c4 -->
<g id="edge12" class="edge">
<title>c3&#45;&gt;c4</title>
<path fill="none" stroke="#000000" d="M385.9362,-112.4052C379.729,-102.1412 371.7431,-88.9359 364.2294,-76.5115"/>
<polygon fill="#000000" stroke="#000000" points="367.0437,-74.4016 358.8739,-67.6558 361.0539,-78.024 367.0437,-74.4016"/>
</g>
<!-- d0 -->
<g id="node16" class="node">
<title>d0</title>
<polygon fill="none" stroke="#000000" points="442,-185.7 442,-260.9 496,-260.9 496,-185.7 442,-185.7"/>
<text text-anchor="start" x="450" y="-244.3" font-family="Times,serif" font-size="14.00" fill="#000000">x1 = </text>
<text text-anchor="start" x="450" y="-227.5" font-family="Times,serif" font-size="14.00" fill="#000000"> = x1 </text>
<text text-anchor="start" x="450" y="-210.7" font-family="Times,serif" font-size="14.00" fill="#000000"> y1 = </text>
<text text-anchor="start" x="450" y="-193.9" font-family="Times,serif" font-size="14.00" fill="#000000"> z1 = </text>
</g>
<!-- d1 -->
<g id="node17" class="node">
<title>d1</title>
<polygon fill="none" stroke="#000000" points="442,-112.7 442,-148.7 496,-148.7 496,-112.7 442,-112.7"/>
<text text-anchor="middle" x="468.9473" y="-126.5" font-family="Times,serif" font-size="14.00" fill="#000000">=y1</text>
</g>
<!-- d0&#45;&gt;d1 -->
<g id="edge13" class="edge">
<title>d0&#45;&gt;d1</title>
<path fill="none" stroke="#000000" d="M469,-185.636C469,-176.6935 469,-167.3054 469,-158.8705"/>
<polygon fill="#000000" stroke="#000000" points="472.5001,-158.8015 469,-148.8016 465.5001,-158.8016 472.5001,-158.8015"/>
</g>
<!-- d4 -->
<g id="node20" class="node">
<title>d4</title>
<polygon fill="none" stroke="#000000" points="459.2399,-17.3 459.2399,-58.9 550.7601,-58.9 550.7601,-17.3 459.2399,-17.3"/>
<text text-anchor="start" x="467.2399" y="-42.3" font-family="Times,serif" font-size="14.00" fill="#000000">z3 = φ(z1,z2)</text>
<text text-anchor="middle" x="505" y="-25.5" font-family="Times,serif" font-size="14.00" fill="#000000"> =z3</text>
</g>
<!-- d1&#45;&gt;d4 -->
<g id="edge14" class="edge">
<title>d1&#45;&gt;d4</title>
<path fill="none" stroke="#000000" d="M476.1124,-112.4052C480.974,-99.9003 487.5328,-83.0295 493.172,-68.5241"/>
<polygon fill="#000000" stroke="#000000" points="496.5357,-69.5312 496.8971,-58.9426 490.0114,-66.9947 496.5357,-69.5312"/>
</g>
<!-- d2 -->
<g id="node18" class="node">
<title>d2</title>
<polygon fill="none" stroke="#000000" points="514,-185.7 514,-260.9 568,-260.9 568,-185.7 514,-185.7"/>
<text text-anchor="start" x="522" y="-244.3" font-family="Times,serif" font-size="14.00" fill="#000000">x2 = </text>
<text text-anchor="start" x="522" y="-227.5" font-family="Times,serif" font-size="14.00" fill="#000000"> = x2 </text>
<text text-anchor="start" x="522" y="-210.7" font-family="Times,serif" font-size="14.00" fill="#000000"> y2 = </text>
<text text-anchor="start" x="522" y="-193.9" font-family="Times,serif" font-size="14.00" fill="#000000"> z2 = </text>
</g>
<!-- d3 -->
<g id="node19" class="node">
<title>d3</title>
<polygon fill="none" stroke="#000000" points="514,-112.7 514,-148.7 568,-148.7 568,-112.7 514,-112.7"/>
<text text-anchor="middle" x="540.9473" y="-126.5" font-family="Times,serif" font-size="14.00" fill="#000000">=y2</text>
</g>
<!-- d2&#45;&gt;d3 -->
<g id="edge15" class="edge">
<title>d2&#45;&gt;d3</title>
<path fill="none" stroke="#000000" d="M541,-185.636C541,-176.6935 541,-167.3054 541,-158.8705"/>
<polygon fill="#000000" stroke="#000000" points="544.5001,-158.8015 541,-148.8016 537.5001,-158.8016 544.5001,-158.8015"/>
</g>
<!-- d3&#45;&gt;d4 -->
<g id="edge16" class="edge">
<title>d3&#45;&gt;d4</title>
<path fill="none" stroke="#000000" d="M533.8876,-112.4052C529.026,-99.9003 522.4672,-83.0295 516.828,-68.5241"/>
<polygon fill="#000000" stroke="#000000" points="519.9886,-66.9947 513.1029,-58.9426 513.4643,-69.5312 519.9886,-66.9947"/>
</g>
</g>
</svg>
