<?xml version="1.0" encoding="UTF-8" standalone="no"?>
<!DOCTYPE svg PUBLIC "-//W3C//DTD SVG 1.1//EN"
 "http://www.w3.org/Graphics/SVG/1.1/DTD/svg11.dtd">
<!-- Generated by graphviz version 2.40.1 (20161225.0304)
 -->
<!-- Title: %0 Pages: 1 -->
<svg width="134pt" height="191pt"
 viewBox="0.00 0.00 134.00 191.00" xmlns="http://www.w3.org/2000/svg" xmlns:xlink="http://www.w3.org/1999/xlink">
<g id="graph0" class="graph" transform="scale(1 1) rotate(0) translate(4 187)">
<title>%0</title>
<polygon fill="#ffffff" stroke="transparent" points="-4,4 -4,-187 130,-187 130,4 -4,4"/>
<!-- a -->
<g id="node1" class="node">
<title>a</title>
<polygon fill="none" stroke="#000000" points="36,-146.5 36,-182.5 90,-182.5 90,-146.5 36,-146.5"/>
<text text-anchor="middle" x="62.8926" y="-160.4" font-family="Times,serif" font-size="14.00" fill="#000000">1:x=3</text>
</g>
<!-- b -->
<g id="node2" class="node">
<title>b</title>
<polygon fill="none" stroke="#000000" points="0,-73.5 0,-109.5 54,-109.5 54,-73.5 0,-73.5"/>
<text text-anchor="middle" x="26.8926" y="-87.4" font-family="Times,serif" font-size="14.00" fill="#000000">2:x=5</text>
</g>
<!-- a&#45;&gt;b -->
<g id="edge1" class="edge">
<title>a&#45;&gt;b</title>
<path fill="none" stroke="#000000" d="M54.1011,-146.4551C49.9905,-138.1196 45.0205,-128.0416 40.4651,-118.8042"/>
<polygon fill="#000000" stroke="#000000" points="43.4833,-117.011 35.9213,-109.5904 37.2052,-120.1071 43.4833,-117.011"/>
</g>
<!-- c -->
<g id="node3" class="node">
<title>c</title>
<polygon fill="none" stroke="#000000" points="72,-73.5 72,-109.5 126,-109.5 126,-73.5 72,-73.5"/>
<text text-anchor="middle" x="99" y="-87.4" font-family="Times,serif" font-size="14.00" fill="#000000">3</text>
</g>
<!-- a&#45;&gt;c -->
<g id="edge2" class="edge">
<title>a&#45;&gt;c</title>
<path fill="none" stroke="#000000" d="M71.8989,-146.4551C76.0095,-138.1196 80.9795,-128.0416 85.5349,-118.8042"/>
<polygon fill="#000000" stroke="#000000" points="88.7948,-120.1071 90.0787,-109.5904 82.5167,-117.011 88.7948,-120.1071"/>
</g>
<!-- d -->
<g id="node4" class="node">
<title>d</title>
<polygon fill="none" stroke="#000000" points="36,-.5 36,-36.5 90,-36.5 90,-.5 36,-.5"/>
<text text-anchor="middle" x="62.7756" y="-14.4" font-family="Times,serif" font-size="14.00" fill="#000000">4:Φ</text>
</g>
<!-- b&#45;&gt;d -->
<g id="edge3" class="edge">
<title>b&#45;&gt;d</title>
<path fill="none" stroke="#000000" d="M35.8989,-73.4551C40.0095,-65.1196 44.9795,-55.0416 49.5349,-45.8042"/>
<polygon fill="#000000" stroke="#000000" points="52.7948,-47.1071 54.0787,-36.5904 46.5167,-44.011 52.7948,-47.1071"/>
</g>
<!-- c&#45;&gt;d -->
<g id="edge4" class="edge">
<title>c&#45;&gt;d</title>
<path fill="none" stroke="#000000" d="M90.1011,-73.4551C85.9905,-65.1196 81.0205,-55.0416 76.4651,-45.8042"/>
<polygon fill="#000000" stroke="#000000" points="79.4833,-44.011 71.9213,-36.5904 73.2052,-47.1071 79.4833,-44.011"/>
</g>
</g>
</svg>
